PathFileType	4	(X/Y/Z)	Patient4_TMGait_0pt2_03_right_11.trc.trc
DataRate	CameraRate	NumFrames	NumMarkers	Units	OrigDataRate	OrigDataStartFrame	OrigNumFrames
45.307443365696	45.307443365696	4	33	mm	45.307443365696	89	       141
Frame#	Time	Sacral			L.Shoulder			Chest			R.Shoulder			Neck			R.ASIS			L.ASIS			R.Thigh.Superior			R.Thigh.Lateral			R.Thigh.Inferior			R.Patella			L.Thigh.Superior			L.Thigh.Lateral			L.Thigh.Inferior			L.Patella			L.Shank.Superior			L.Shank.Lateral			L.Shank.Inferior			R.Shank.Superior			R.Shank.Lateral			R.Shank.Inferior			R.Heel			R.Midfoot.Superior			R.Midfoot.Lateral			R.Toe			L.Heel			L.Midfoot.Lateral			L.Midfoot.Superior			L.Toe			L.Elbow			L.Wrist			R.Elbow			R.Wrist			
		X1	Y1	Z1	X2	Y2	Z2	X3	Y3	Z3	X4	Y4	Z4	X5	Y5	Z5	X6	Y6	Z6	X7	Y7	Z7	X8	Y8	Z8	X9	Y9	Z9	X10	Y10	Z10	X11	Y11	Z11	X12	Y12	Z12	X13	Y13	Z13	X14	Y14	Z14	X15	Y15	Z15	X16	Y16	Z16	X17	Y17	Z17	X18	Y18	Z18	X19	Y19	Z19	X20	Y20	Z20	X21	Y21	Z21	X22	Y22	Z22	X23	Y23	Z23	X24	Y24	Z24	X25	Y25	Z25	X26	Y26	Z26	X27	Y27	Z27	X28	Y28	Z28	X29	Y29	Z29	X30	Y30	Z30	X31	Y31	Z31	X32	Y32	Z32	X33	Y33	Z33	

89	25.462285714286	796.807126982053	1017.115005942484	493.234830604512	956.606328125229	1427.903151387427	273.383165535646	1078.364082729400	1362.485586503098	422.221653228850	1022.669363547865	1451.424252009311	598.064309161999	953.993090105305	1496.982638329365	427.674551939051	1029.022690217984	944.614934734057	596.175011932214	998.203426943204	959.080604115925	323.061920147671	1024.604590620350	728.734971570627	577.845347661191	926.018864161028	637.142308350305	650.123919066714	985.594862080598	566.323747017319	572.049703913321	965.401449502539	473.673679921097	586.180311946159	1059.251154179719	760.451518431667	361.135432897079	979.711850493839	628.910512589628	292.468055055109	1076.008965927375	567.906960195335	361.570323928763	1081.006280480031	499.417021946577	369.019491494343	1061.778105035505	425.147722362701	358.230063458413	984.206845438782	305.407016871628	299.488595124131	1040.929036578956	197.291691823462	372.577315730413	907.784939484148	400.539034367376	599.890108309243	808.909107690595	330.770445324160	671.955901706481	816.807335698708	222.117062632434	616.842991817158	636.637615613937	93.860538302299	605.680402145035	817.996861195164	105.448985170521	631.674411578366	720.501149502937	66.332072101234	674.892781133030	922.461609505447	37.013570164700	653.342915020380	918.373214491817	37.712128358035	399.771154296194	999.922322535629	35.689209520335	326.321340680557	1078.928366189508	98.307584273004	360.338391004367	1209.506759506068	50.873579342520	345.205929140796	831.428503831357	1104.895674521653	161.333589492382	842.144778451298	843.313224002653	177.317813887916	1187.138801950023	1154.929151663348	712.587359004435	1406.534502852879	1228.696654873933	609.406941638910	
90	25.484357142857	796.887664225863	1018.446464186604	486.268999096832	960.566911623640	1429.176498362975	268.675871062260	1079.786032638933	1363.772198741851	419.520006789399	1021.325542957188	1452.644200233501	594.571440742650	955.487078089218	1498.356318093716	423.077774877041	1027.978635080997	946.004913565484	592.081731528269	1000.363770786683	960.079072238713	318.725460000731	1027.538284692733	730.727054639950	574.447463750676	930.172689011632	638.058170264915	646.245235742678	992.273601676642	567.522547443489	569.286144743591	973.276614826673	473.324345144035	584.684211351232	1059.097700637383	759.771610596635	357.326420709415	978.264105297471	628.993556779649	289.006834568857	1073.101743493528	567.172543082280	359.337706164129	1077.140526136763	498.942192520153	367.128065424811	1058.005258112258	424.889809574775	356.457745312797	980.550589783832	304.911465363582	298.182270140121	1036.724767613414	197.168601170411	372.156125067540	913.500805188103	401.424238946601	598.112761682940	812.279641376480	334.632828655757	669.753509879832	818.595334333937	225.211358797955	615.910820264007	635.656199870359	101.744345324075	604.355164003690	817.096928029558	106.845762007806	631.403789023090	718.033450846967	71.169260881684	674.005848723872	918.468143514194	36.753874178545	653.354214095926	913.905963895918	37.631565981549	399.780458510102	995.444350950000	35.634786751250	326.330773604190	1074.400160821410	98.221323541627	360.328975244903	1205.002712167097	50.940696298955	345.176617775957	843.061196142449	1103.350538356550	153.786510441652	858.697486540897	842.026971444246	166.983534303038	1175.425626308934	1149.800390058256	712.275800904768	1403.811229109512	1205.797340493019	617.141647748317	
91	25.506428571429	796.755063743633	1019.280048409933	479.475782743140	964.043793888258	1430.256172772119	264.496568720943	1080.822339602023	1364.781155462924	417.146753382472	1019.714885276952	1453.327600031023	591.537954175382	956.681991059555	1499.413442884221	419.018161215860	1026.885390930981	947.032369532186	587.912489189868	1002.262293141726	960.882552232839	314.371231509848	1031.401258661909	732.650074198878	570.675319154438	935.882375566185	638.489432448631	642.045509922892	1000.658342856769	568.616708704878	566.019909513667	983.120124715745	472.675508255268	582.730555899746	1059.210496020826	759.146381345544	353.712004868961	977.532443256614	628.883908392980	285.741155642562	1071.017771824628	566.458515525040	357.362102794506	1074.280326726565	498.353676860361	365.473130626224	1055.023247218323	424.483287949416	354.912611321128	977.499450530709	304.441833348866	296.993109574025	1032.788218543999	196.952278255624	371.859916716649	921.016322468565	401.968548703076	595.921695755600	817.440067235867	338.506279595067	667.209718752002	821.627111797438	228.415336289570	614.653688008607	635.725084518247	110.824228898079	602.676964116827	816.783928378173	108.517675199953	631.031465544946	716.148107550166	76.921588940012	672.866951486391	914.482448364930	36.360440414998	653.452008922161	909.456848994338	37.578408770835	399.802601347790	990.986749481715	35.605256118965	326.363408714170	1069.916169947803	98.103415290635	360.391329838992	1200.526746139474	50.942533282438	345.187001560697	855.385163442980	1101.313306278582	147.025078574642	876.571751601715	840.439682159075	157.603081657745	1162.800368822715	1143.979750972265	711.833069452302	1398.862528705813	1179.681007490974	625.772110847984	
92	25.528500000000	796.431863517318	1019.543125159834	472.860893260057	967.010354086895	1431.107294325052	260.866625114908	1081.469784159966	1365.448579630892	415.102510347739	1017.850401671726	1453.377620401024	588.986354328669	957.575694426517	1500.088813215627	415.541483285569	1025.776475103558	947.648670695015	583.670449567871	1003.917824287954	961.440359110839	309.994265760369	1036.135207401205	734.498138783145	566.486409062980	943.101332960803	638.487402017670	637.512035127886	1010.597225958972	569.656731822678	562.173356293100	994.782846845584	471.846801761703	580.203029385237	1059.699003611045	758.574952384026	350.276923536886	977.658043483666	628.528595353222	282.691775517672	1069.955992298945	565.754780858951	355.627191109283	1072.658300971800	497.618379838032	364.050575306273	1053.011568731648	423.873194117188	353.604879115179	975.174396827233	303.986757123403	295.923424316845	1029.176919151395	196.609571438377	371.684374539208	930.260395263451	402.239631691269	593.252076368804	824.381503815270	342.426321277944	664.275279071314	825.939843973489	231.787738651388	613.024192897715	637.030735747149	121.192880531405	600.567927500022	817.115216809188	110.530257780012	630.530615757814	714.961737394018	83.720804935168	671.413058489335	910.470741091931	35.786108690582	653.646927022540	905.025301566539	37.552009072982	399.833564565862	986.549275517008	35.599371595343	326.413662074326	1065.480871987943	97.956929078173	360.521939201104	1196.083210404515	50.868652629450	345.234042029496	868.397899332291	1098.873901454813	141.046825711081	895.806512658991	838.679304821074	149.298546748908	1149.418014721014	1137.499875397725	711.170327808861	1391.190607107184	1150.459063705361	635.111274741451	
